
<svg width="1440" height="800" viewBox="0 0 1440 800" fill="none" xmlns="http://www.w3.org/2000/svg">
  <g opacity="0.15" filter="url(#filter0_f_0_1)">
    <circle cx="720" cy="400" r="300" fill="#9b87f5"/>
  </g>
  <g opacity="0.1">
    <path d="M0 0h1440v800H0z"/>
    <path d="M1278.5 503.5l-15.5 15.5m-11-73l-15.5 15.5m-11-73l-15.5 15.5m-11-73l-15.5 15.5m-11-73l-15.5 15.5m-11-73L1172 169m-11-73l-15.5 15.5" stroke="#9b87f5" stroke-width="2"/>
    <path d="M176.5 608.5l-15.5 15.5m-11-73l-15.5 15.5m-11-73l-15.5 15.5m-11-73l-15.5 15.5m-11-73l-15.5 15.5m-11-73L75 304m-11-73l-15.5 15.5" stroke="#9b87f5" stroke-width="2"/>
  </g>
  <circle cx="1260" cy="631" r="5" fill="#9b87f5" fill-opacity="0.5"/>
  <circle cx="1307" cy="708" r="3" fill="#9b87f5" fill-opacity="0.5"/>
  <circle cx="1176" cy="708" r="3" fill="#9b87f5" fill-opacity="0.5"/>
  <circle cx="148" cy="197" r="5" fill="#9b87f5" fill-opacity="0.5"/>
  <circle cx="95" cy="120" r="3" fill="#9b87f5" fill-opacity="0.5"/>
  <circle cx="226" cy="120" r="3" fill="#9b87f5" fill-opacity="0.5"/>
  <defs>
    <filter id="filter0_f_0_1" x="220" y="-100" width="1000" height="1000" filterUnits="userSpaceOnUse" color-interpolation-filters="sRGB">
      <feFlood flood-opacity="0" result="BackgroundImageFix"/>
      <feBlend in="SourceGraphic" in2="BackgroundImageFix" result="shape"/>
      <feGaussianBlur stdDeviation="100" result="effect1_foregroundBlur_0_1"/>
    </filter>
  </defs>
</svg>
